PathFileType	4	(X/Y/Z)	D:\TRACE\v60_Jaco2_6-2-23\BothDRS_Motion3_8-platform.trc
DataRate	CameraRate	NumFrames	NumMarkers	Units	OrigDataRate	OrigDataStartFrame	OrigNumFrames
100.00	100.00	      43	5	mm	100.00	1751	      7000
Frame#	Time	Left_Front			Right_Front			Left_Aft			Right_Aft			Post			
		X1	Y1	Z1	X2	Y2	Z2	X3	Y3	Z3	X4	Y4	Z4	X5	Y5	Z5	

1751	17.500	-804.87695	7.15537	-651.90747	765.60583	5.50347	-629.12006	-735.72900	13.94995	484.48312	678.26709	10.80979	587.77582	-9.53653	1303.33533	-969.35437	
1752	17.510	-804.92841	7.22030	-651.84186	765.63092	5.63014	-629.04681	-735.80902	13.90816	484.48935	678.30042	10.72349	587.85791	-9.58008	1303.46716	-969.42059	
1753	17.520	-804.96960	7.30220	-651.84497	765.60303	5.79037	-629.04303	-735.76227	13.84647	484.54630	678.33429	10.61882	587.90820	-9.62105	1303.69470	-969.63098	
1754	17.530	-804.64685	7.44876	-651.49121	765.77911	6.01361	-628.86005	-735.76007	13.73528	484.60553	678.35687	10.48386	587.94531	-9.58918	1303.99646	-969.76819	
1755	17.540	-804.61456	7.48405	-651.42822	765.80701	6.15831	-628.77985	-735.77527	13.63448	484.59302	678.16888	10.42228	588.01880	-9.47700	1304.18408	-969.89581	
1756	17.550	-804.55627	7.58819	-651.33270	765.58740	6.17556	-628.93274	-735.82977	13.50775	484.69086	678.29120	10.42933	587.95697	-9.53854	1304.48547	-969.85077	
1757	17.560	-804.60211	7.77510	-651.23157	765.51318	6.30373	-628.82703	-735.82111	13.30727	484.69397	678.38635	10.25279	587.99371	-9.57216	1304.70496	-969.78882	
1758	17.570	-805.00214	8.18620	-651.78955	765.51062	6.43998	-628.70526	-735.82642	13.16300	484.77521	678.37933	10.17074	587.99896	-9.62805	1304.87085	-969.53699	
1759	17.580	-805.03760	8.31828	-651.72058	765.49573	6.62850	-628.60931	-735.86371	13.06992	484.80542	678.37817	10.04242	588.03735	-9.94612	1305.12830	-968.98334	
1760	17.590	-805.09442	8.45435	-651.62921	765.46295	6.75949	-628.62817	-735.88934	13.07555	484.74619	678.34216	9.96877	588.03448	-9.98614	1305.32166	-968.40546	
1761	17.600	-805.10791	8.58037	-651.55731	765.43542	6.82233	-628.62604	-735.85364	12.94150	484.78665	678.30017	9.90339	588.03387	-9.82299	1305.49377	-967.73431	
1762	17.610	-805.13940	8.75100	-651.51843	765.43256	6.86220	-628.60999	-735.83960	12.84268	484.79193	678.28308	9.79925	588.06653	-9.70260	1305.58228	-967.03467	
1763	17.620	-805.14709	8.94532	-651.54089	765.37915	6.94129	-628.60156	-735.82697	12.70377	484.82791	678.23303	9.69592	588.14227	-9.72807	1305.75659	-966.45526	
1764	17.630	-805.11310	9.04751	-651.53662	765.36920	7.11801	-628.63678	-735.87433	12.72019	484.83301	678.20386	9.60432	588.23132	-9.77248	1305.90833	-965.97333	
1765	17.640	-805.08929	9.21023	-651.53821	765.42169	7.36553	-628.63971	-735.81061	12.58112	484.81781	678.20575	9.52869	588.23248	-9.83712	1306.09155	-965.50244	
1766	17.650	-805.12128	9.37543	-651.53021	765.37909	7.50857	-628.60461	-735.80743	12.53136	484.82880	678.18457	9.51852	588.24530	-9.70970	1306.31604	-965.01385	
1767	17.660	-805.07239	9.50160	-651.44916	765.32715	7.60594	-628.58307	-735.81415	12.45879	484.87808	678.16589	9.46701	588.32251	-9.70231	1306.49756	-964.76190	
1768	17.670	-805.14331	9.38154	-651.60974	765.31946	7.75988	-628.47949	-735.83203	12.34702	484.94226	678.12396	9.33868	588.43884	-9.59577	1306.64148	-964.64069	
1769	17.680	-805.02673	9.41004	-651.71918	765.31104	7.87408	-628.48517	-735.88208	12.20517	484.94620	678.03632	9.16964	588.48914	-9.72691	1306.88635	-964.66333	
1770	17.690	-805.10138	9.51244	-651.57849	765.25641	7.98495	-628.50446	-735.87738	12.08255	484.93079	677.93298	9.04951	588.53040	-9.93283	1307.04761	-964.86646	
1771	17.700	-805.02130	9.65720	-651.59473	765.24457	8.10940	-628.46759	-735.87024	11.99559	485.01624	677.90192	9.03671	588.59790	-10.02612	1307.24756	-964.96661	
1772	17.710	-805.12866	9.93741	-651.34076	765.23291	8.21955	-628.46393	-735.92322	11.86425	485.09229	677.92023	8.96967	588.62903	-10.01033	1307.36328	-964.96515	
1773	17.720	-805.18768	9.95328	-651.25586	765.17969	8.20411	-628.42023	-735.98724	11.82896	485.16586	677.87341	8.70028	588.53076	-10.05117	1307.55286	-964.83984	
1774	17.730	-805.18781	10.07069	-651.28564	765.23773	8.21855	-628.34668	-735.77460	11.27254	485.49405	677.89569	8.63314	588.52399	-10.01422	1307.66663	-964.76184	
1775	17.740	-805.26398	10.31137	-651.25342	765.38995	8.20376	-628.07568	-735.81201	11.12367	485.63028	677.90442	8.62738	588.56458	-10.19416	1307.89502	-964.56360	
1776	17.750	-805.44330	10.45746	-651.15479	765.18518	8.39028	-628.34314	-735.99982	11.30460	485.50247	677.99060	8.56440	588.59802	-10.02237	1308.18616	-964.16150	
1777	17.760	-805.44873	10.89241	-651.16162	765.11713	8.63708	-628.19940	-736.08044	11.23271	485.57663	677.97601	8.56921	588.70581	-9.93202	1308.31970	-963.70514	
1778	17.770	-805.44196	10.93563	-651.07104	765.11548	8.66686	-628.12177	-736.12823	11.24905	485.58426	678.07996	8.45731	588.68457	-10.01985	1308.63916	-963.18060	
1779	17.780	-805.50195	11.01710	-650.94690	765.06744	8.71540	-628.09833	-736.16876	11.19316	485.59485	677.95471	8.20185	588.58325	-10.11378	1308.75818	-962.83588	
1780	17.790	-805.35272	11.14785	-650.77856	765.05060	8.80579	-628.13025	-736.29541	11.06427	485.62833	677.79266	8.01270	588.51331	-10.12875	1308.81567	-962.46552	
1781	17.800	-805.54095	11.21784	-650.81439	764.86041	9.04106	-628.11072	-736.37579	11.05746	485.67432	677.53564	7.99595	588.55359	-10.22005	1308.84778	-962.10809	
1782	17.810	-805.67126	11.17004	-650.77734	764.90240	8.98480	-628.07880	-736.41339	11.05807	485.81036	677.50342	7.98945	588.61127	-10.49699	1308.90967	-961.79730	
1783	17.820	-805.68689	11.26925	-650.63989	764.80377	9.05405	-628.10065	-736.56134	11.21258	485.79315	677.53113	7.93942	588.68347	-10.48115	1308.95129	-961.47211	
1784	17.830	-805.77563	11.34642	-650.66119	764.71472	9.15221	-628.13818	-736.53931	11.13173	485.78714	677.40076	7.88795	588.64520	-10.41804	1309.01636	-961.34564	
1785	17.840	-805.72614	11.37556	-650.61127	764.76746	9.21272	-628.11914	-736.56824	11.00232	485.81680	677.25671	7.84347	588.63446	-10.51902	1309.02832	-961.32300	
1786	17.850	-805.89612	11.51713	-650.59894	764.72687	9.19035	-628.13501	-736.65564	11.02238	485.73224	677.08380	7.82348	588.65021	-10.64953	1309.04041	-961.34100	
1787	17.860	-806.06824	11.47338	-650.63831	764.60815	9.20622	-628.14691	-736.77991	11.01406	485.75439	677.15527	7.84125	588.72058	-10.72344	1309.07935	-961.50983	
1788	17.870	-806.18292	11.43357	-650.66931	764.52631	9.29406	-628.15033	-736.73315	11.06480	485.78259	677.14893	7.82958	588.77386	-10.76948	1309.11096	-961.67377	
1789	17.880	-806.15631	11.42046	-650.53278	764.46985	9.28297	-628.15259	-736.84497	10.97793	485.83768	677.05310	7.77212	588.74597	-10.98712	1309.16357	-961.87256	
1790	17.890	-806.31946	11.49224	-650.64856	764.43799	9.24017	-628.14325	-736.84430	10.94447	485.66904	676.98248	7.76616	588.71417	-10.93494	1309.17603	-961.98279	
1791	17.900	-806.42780	11.32937	-650.64850	764.36365	9.25122	-628.15515	-736.96765	10.91974	485.68176	676.76520	7.77473	588.59503	-10.88533	1309.15222	-962.07971	
1792	17.910	-806.54993	11.20642	-650.62482	764.24878	9.21819	-628.16608	-737.05731	10.92090	485.68134	676.79675	7.86238	588.63245	-10.87918	1309.12512	-962.15063	
1793	17.920	-806.55499	11.09115	-650.59485	764.17883	9.23763	-628.14368	-737.10040	10.92992	485.72385	676.66632	7.80252	588.67340	-11.02083	1309.09265	-962.13385	
